<svg id="Layer_1" xmlns="http://www.w3.org/2000/svg" version="1.1" viewBox="0 0 3000 3000">
  <!-- Generator: Adobe Illustrator 29.8.1, SVG Export Plug-In . SVG Version: 2.1.1 Build 2)  -->
  <defs>
    <style>
      .st0 {
        fill: #fff;
      }
    </style>
  </defs>
  <g>
    
    <path d="M1172.91,1689.29h-157.81c-1.13-9.01,5.22-5.52,10.68-6.48,19.43-3.43,33.86-21.23,33.86-41.14v-122.56l-12.44,22.51c-24.87,37.32-73.65,44.04-114.87,35.32-126.96-26.87-136.69-210.26-30.89-270.96,55.64-31.92,139.82-10.39,202.15-16.8,14.44.8,23.53,10.53,24.83,24.76l-.03,325.17c2.27,22,10.32,39.55,33.84,43.7,5.46.96,11.81-2.53,10.68,6.48ZM958.82,1301.01c-56.78,6.76-62.61,109.92-60.86,152.74,1.81,44.2,10.87,117.41,69.46,116.21,69.68-1.43,89.28-57.67,92.2-117.55,1.6-32.77,2.49-79.48.06-111.8-1.1-14.57-6.23-29.07-20.42-35.51-13.7-6.21-64.28-6.02-80.45-4.1Z" data-index="1" style="opacity: 1;"></path>
    <path d="M357.15,1289.22l91.93.33c7.64,1.24,14.4,5.6,18.03,12.49.57,1.08,3.3,7.69,3.3,8.13v48.9l19.86-35.42c26.61-36.75,77.67-55.54,119.24-31.64,33.7,19.38,47.54,58.91,46.7,96.28h-68.72c2.21-69.16-73.39-104.44-104.59-30.08-16.04,38.24-15.46,122.94-12.55,165.39,1.86,27.16,14.36,45.42,43.4,45.59l1.2,5.79h-157.81s0-5.07,0-5.07c6.48-1.84,11.99-1.21,18.69-3.57,13.53-4.77,20.67-15.97,24-29.39,0-63.29,6.28-133.38,1.9-196.34-1.31-18.76-8.09-37.54-27.77-43.41-5.97-1.78-11.22-.98-16.83-2.89v-5.08Z" data-index="2" style="opacity: 1;"></path>
    
    <path d="M2123.56,1574.99h-157.81l1.19-5.79c29.08-.17,41.54-18.49,43.4-45.59,3.39-49.45-1.18-104.81-1.9-154.43-18.65-71.91-86.32-67.66-107.24,2.33-11.07,37.05-10.76,112.49-8.05,152.1,1.29,18.87,8.01,37.5,27.77,43.41,7.29,2.18,18.54-1.01,16.83,7.97h-157.81l1.19-5.79c21.6-.02,36.75-11.04,41.5-32.24,0-63.29,6.28-133.38,1.9-196.34-1.31-18.75-8.08-37.52-27.77-43.41-7.29-2.18-18.54,1.01-16.83-7.97h92.27c2.87,0,11.11,4.71,13.41,6.94s7.59,11.47,7.59,14.01v50.17l10.43-21.98c50.12-88.8,168.35-68.74,175.43,36.53,3.24,48.22-3.46,100.54-.1,148.7,1.31,18.77,8.09,37.53,27.77,43.41,7.29,2.18,18.54-1.01,16.83,7.97Z" data-index="4" style="opacity: 1;"></path>
    <path d="M1347.26,1289.22h92.27c9.68,0,20.95,13.89,21.01,23.49,3.28,68.69-4.38,141.41-.07,209.63,1.21,19.22,7.41,38.58,27.78,44.67,7.29,2.18,18.54-1.01,16.83,7.97h-113.26v-71.12l-10.43,21.98c-50.12,88.8-168.35,68.74-175.43-36.53-3.24-48.22,3.46-100.54.1-148.7-1.31-18.77-8.09-37.53-27.77-43.41-7.29-2.18-18.54,1.01-16.83-7.97h92.27c9.29,0,20.39,13.16,20.89,22.33,3.09,55.6-3.74,114.97.06,170.13,5.35,77.84,85.23,91,109.14,11.02,11.07-37.05,10.76-112.49,8.05-152.1-1.29-18.87-8.01-37.5-27.77-43.41-7.29-2.18-18.54,1.01-16.83-7.97Z" data-index="5" style="opacity: 1;"></path>
    <path d="M2770.06,1574.99h-92.27c-.49,0-7.8-3.11-8.95-3.77-8.46-4.84-12.46-14.73-12.06-24.17-4.69,2.98-7.83,7.99-12.11,11.4-52.77,42.13-180.46,28.49-159.09-60.98,16.11-67.44,129.87-45.17,158.51-119.95,9.21-24.04,13.78-63.89-14.83-76.71-48.06-21.54-92.45,50.56-108.87,85.35-1.88,3.98-4.84,14.89-6.83,17.31-1.45,1.77-2.31,1.45-4.39,1.32l15.45-115.39c10.02-2.48,15.02,4.93,23.67,8.4,29.19,11.73,36.48-5.41,61.37-10.54,35.54-7.31,81,.78,101.63,33.29,25.96,40.92,10.34,151.12,14.18,203.03,1.39,18.77,8.07,37.52,27.77,43.41,7.29,2.18,18.54-1.01,16.83,7.97ZM2656.8,1518.47v-136.53l-9.66,18.94c-37.62,47.48-100.55,42.95-94.68,120.11,5.23,68.68,97.94,44.98,104.34-2.52Z" data-index="6" style="opacity: 1;"></path>
    <path d="M2467.17,1289.22l-.14,7.49c-7.61,1.55-14.83,1.68-22.49,3.58-19.18,4.77-34.32,18.81-45.86,34.25l-131.32,229.01h102.45c33.33,0,71.64-59.3,84.45-85.91,1.77-3.69,5.77-16.43,7.22-18.2s2.36-1.42,4.41-1.3l-19.08,116.84h-306.7l1.2-5.79c24.09.22,39.67-10.75,53.29-29.37l142.77-239.17h-80.81c-1.85,0-11.24,3.16-13.69,4.12-36.08,14.09-65.15,65.99-78.48,100.51l-3.91.79,19.08-116.85h287.62Z" data-index="7" style="opacity: 1;"></path>
    <path d="M1774.87,1416.24c-54.73-2.55-137.47-.97-169.02,52.95-26.66,45.58-6.32,96.68,48.77,100.7,53.74,3.92,90.46-38.38,103.04-86.36l12.11-1.24c-12.79,55.59-49.59,95.33-108.76,99.11-110.31,7.05-169.58-80.02-154.51-183.41,23.67-162.39,271.9-147.52,268.36,18.25ZM1703.58,1406.05c-3.33-43.52-12.12-124.01-75.11-108.62-33.46,8.17-45.49,51.63-49.43,81.49-5.05,38.26-2.99,77.97,2.39,116.05,2.48-.45,2.08-2.68,2.59-4.39,1.6-5.33,2.24-10.46,4.42-15.91,17.03-42.51,72.48-64.43,115.14-68.62Z" data-index="8" style="opacity: 1;"></path>
    <path d="M825.48,1574.99h-157.81l1.19-5.79c21.6-.02,36.75-11.04,41.5-32.24,0-63.29,6.28-133.38,1.9-196.34-1.31-18.75-8.08-37.52-27.77-43.41-7.29-2.18-18.54,1.01-16.83-7.97h92.27c9.68,0,20.95,13.89,21.01,23.49,3.28,68.69-4.38,141.41-.07,209.63,1.21,19.22,7.41,38.58,27.78,44.67,7.29,2.18,18.54-1.01,16.83,7.97Z" data-index="9" style="opacity: 1;"></path>
    <path d="M734.79,1191.73c47.58-7.61,55.28,61.27,13.38,67.97-47.58,7.61-55.28-61.27-13.38-67.97Z" data-index="10"></path>
    
    <path class="st0" d="M2656.8,1518.47c-6.4,47.5-99.11,71.2-104.34,2.52-5.87-77.17,57.06-72.63,94.68-120.11l9.66-18.94v136.53Z" data-index="12" style="opacity: 1; visibility: hidden;"></path>
    
  </g>
  <g>
    <path class="st0" d="M1425.16,1637.52c-9.51,4.48-4.14,16.56,5.11,12.03,4.41-2.16,3.27-10.27-1.28-12.03h285.44c-9.51,4.48-4.14,16.56,5.11,12.03,4.41-2.16,3.27-10.27-1.28-12.03h1055.09v164.62h-1553.33v-164.62h205.16ZM1325.76,1638.79h-7.65v120.3h7.65v-51.28c0-5.19,3.91-16.4,7.09-20.81,12.45-17.28,46.78-15.7,53.71,5.97.9,2.8,2.91,12.41,2.91,14.84v51.28h7.65v-55.08c0-3.06-2.74-12.9-4.11-16.18-9.82-23.42-46.61-25.07-61.55-6.01l-5.71,8.89v-51.92ZM2397.42,1638.79h-7.65v120.3h7.65v-120.3ZM1291.35,1669.17c-6.77-35.89-72-35.6-70.14,4.47,1.8,38.73,63.73,21.76,65.08,55.75,1.37,34.31-53.38,31.48-56.23.7l-7.53-.13c.42,36.41,66.77,42.74,71.22,5.56,6.18-51.64-71.36-24.28-63.5-70.71,3.68-21.73,50.27-19.53,52.32,4.22l8.77.14ZM1536.02,1759.08v-55.08c0-3.07-2.74-12.9-4.11-16.18-8.04-19.19-38.05-24.25-54.43-12.87-1.21.84-9.2,7.72-9.87,8.54-1.79,2.17-1.66,6.34-4.22,7.21v-20.26h-7.65v88.64h7.65v-51.28c0-8.79,6.89-21.37,14.1-26.51,10.73-7.64,27.56-8.34,38.17-.11,1.17.91,8.82,8.9,9.26,9.84,1.06,2.26,3.46,14.49,3.46,16.78v51.28h7.65ZM1643.06,1717.3c10.29-57.34-80.9-66.33-86.64-9.48-3.29,32.58,17.84,56.32,51.46,52.4,14.1-1.64,34.46-13.95,35.21-29.62.17-3.64-4.39-1.38-6.84-1.96-4.93,9.51-8.55,17.28-19.06,21.83-25.07,10.84-54.36-4.68-53.13-33.17h79ZM1826.55,1759.08v-55.08c0-3.06-2.74-12.9-4.11-16.18-9.82-23.42-46.61-25.07-61.55-6.01l-5.71,8.89v-20.26h-7.65v88.64h7.65v-51.28c0-5.19,3.91-16.4,7.09-20.81,12.4-17.22,46.82-15.61,53.71,5.97.9,2.8,2.91,12.41,2.91,14.84v51.28h7.65ZM1979.46,1717.3c7.66-66.09-94.8-64.05-86.51,5.56,5.57,46.84,78.19,51.56,86.52,5.84l-6.81-.06c-4.21,11.32-7.54,17.01-19.07,21.83-25.55,10.67-53.54-5.06-53.13-33.17h79ZM2173.15,1717.3c7.47-66.42-93.55-64.26-85.24,5.56,5.63,47.29,76.72,51.76,85.24,5.84l-6.81-.06c-11.28,39.73-72.7,30.86-70.92-11.34h77.73ZM2205.01,1688.17v-17.73h-7.65v88.64h7.65v-53.82c0-2.37,2.73-11.17,3.98-13.77,5.73-11.85,20.16-13.53,31.73-15.44l-.02-6.89c-10.39-1.02-19.74,2.13-27.91,8.36l-7.77,10.64ZM2501.91,1736.29v22.79h7.65v-88.64h-7.65v22.79l-12.71-15.86c-42.85-26.74-84.26,15.8-64.36,60.16,11.6,25.85,48.93,30.67,68.65,11.28l8.42-12.53ZM2707.07,1717.3c8.53-51.32-62.51-67.34-82.55-20.62-.85,1.99-3.94,8.35-4.06,8.85-2.17,9.22,1.82,23.53,5.7,32.03,15.42,33.78,76.25,30.01,80.91-8.85l-6.81-.06c-11.24,39.63-72.77,30.85-70.92-11.34h77.73ZM2737.65,1688.17v-17.73h-8.92v88.64h8.92v-53.82c0-2.37,2.73-11.17,3.98-13.77,5.59-11.56,19.24-13.2,30.47-15.44l-.05-6.89c-9.9-.94-18.85,2.52-26.64,8.36l-7.77,10.64ZM1430.25,1670.44h-7.65v88.64h7.65v-88.64ZM1719.51,1670.44h-7.65v88.64h7.65v-88.64ZM2000.92,1670.66l-7.44-.21c6.83,19.17,14.14,39.19,22.58,57.92.75,1.66,2.5,1.52,3.26,3.18,2.42,5.25,7.91,23.24,10.47,26.27,1.79,2.13,6.68,1.37,9.39,1.08l37.12-88.46-8.07.2-33.33,78.32-33.98-78.31ZM2254.53,1670.62c-1.9.07-9.76-1.7-8.72,1.7l36.89,86.27-16.51,41.67,9.55-.64c5.73-13.15,9.98-27.01,15.57-40.2.61-1.44,2.35-1.52,2.8-2.6,11.91-28.37,22.53-57.51,33.23-86.36-3.14.09-7.01-1.04-8.8,2-9.69,24.02-18.01,49.37-29.37,72.12-.6,1.21-.82,2.99-2.58,3.11l-32.05-77.07ZM2536.15,1670.62c-1.9.07-9.76-1.7-8.72,1.7l36.89,86.27-16.51,41.67c1.45,1.03,5.34.96,7.01.64,5.37-1.03,8-22.15,13.72-25.66l40.41-104.78-6.8.2-32.68,77.04-33.32-77.07Z" data-index="14" style="opacity: 1; visibility: hidden;"></path>
    <path d="M1428.98,1637.52c4.56,1.76,5.69,9.87,1.28,12.03-9.24,4.53-14.62-7.55-5.11-12.03h3.82Z" data-index="15"></path>
    <path d="M1718.24,1637.52c4.56,1.76,5.69,9.87,1.28,12.03-9.24,4.53-14.62-7.55-5.11-12.03h3.82Z" data-index="16"></path>
    <path d="M2501.91,1736.29l-8.42,12.53c-19.72,19.38-57.05,14.57-68.65-11.28-19.9-44.36,21.51-86.9,64.36-60.16l12.71,15.86v-22.79h7.65v88.64h-7.65v-22.79ZM2491.27,1686.09c-18.05-17.69-53.99-11.34-61.37,14.72-9.67,34.12,16.54,63.84,51.23,49.64,24-9.82,27.58-47.27,10.14-64.37Z" data-index="17" style="opacity: 1;"></path>
    <path d="M1643.06,1717.3h-79c-1.23,28.49,28.06,44,53.13,33.17,10.52-4.55,14.13-12.32,19.06-21.83,2.45.58,7.01-1.68,6.84,1.96-.75,15.67-21.1,27.98-35.21,29.62-33.62,3.92-54.74-19.82-51.46-52.4,5.73-56.84,96.93-47.86,86.64,9.48ZM1564.05,1712.23h72.63c-.01-10.72-2.7-18.43-10.16-25.99-22.18-22.45-64.36-6.6-62.47,25.99Z" data-index="18" style="opacity: 1;"></path>
    <path d="M1979.46,1717.3h-79c-.41,28.11,27.58,43.84,53.13,33.17,11.53-4.81,14.86-10.51,19.07-21.83l6.81.06c-8.33,45.72-80.94,41-86.52-5.84-8.29-69.61,94.18-71.66,86.51-5.56ZM1973.09,1712.23c1.07-48.97-72.62-47.54-72.63,0h72.63Z" data-index="19" style="opacity: 1;"></path>
    <path d="M2707.07,1717.3h-77.73c-1.85,42.19,59.68,50.97,70.92,11.34l6.81.06c-4.66,38.86-65.49,42.63-80.91,8.85-3.88-8.5-7.87-22.81-5.7-32.03.12-.5,3.21-6.86,4.06-8.85,20.04-46.72,91.08-30.69,82.55,20.62ZM2700.7,1712.23c1.44-48.95-71.91-48.2-71.36,0h71.36Z" data-index="20" style="opacity: 1;"></path>
    <path d="M2173.15,1717.3h-77.73c-1.78,42.2,59.64,51.07,70.92,11.34l6.81.06c-8.53,45.92-79.61,41.45-85.24-5.84-8.31-69.82,92.7-71.98,85.24-5.56ZM2166.78,1712.23c1.39-49.14-71.87-48.11-71.36,0h71.36Z" data-index="21" style="opacity: 1;"></path>
    <path d="M1291.35,1669.17l-8.77-.14c-2.05-23.75-48.64-25.95-52.32-4.22-7.86,46.42,69.68,19.06,63.5,70.71-4.45,37.18-70.8,30.85-71.22-5.56l7.53.13c2.85,30.78,57.6,33.61,56.23-.7-1.36-33.99-63.29-17.02-65.08-55.75-1.86-40.07,63.37-40.36,70.14-4.47Z" data-index="22"></path>
    <path d="M1325.76,1638.79v51.92l5.71-8.89c14.94-19.06,51.72-17.41,61.55,6.01,1.37,3.27,4.11,13.11,4.11,16.18v55.08h-7.65v-51.28c0-2.43-2.01-12.04-2.91-14.84-6.93-21.68-41.27-23.26-53.71-5.97-3.18,4.41-7.09,15.62-7.09,20.81v51.28h-7.65v-120.3h7.65Z" data-index="23" style="opacity: 1;"></path>
    <path d="M2536.15,1670.62l33.32,77.07,32.68-77.04,6.8-.2-40.41,104.78c-5.72,3.51-8.35,24.63-13.72,25.66-1.67.32-5.56.4-7.01-.64l16.51-41.67-36.89-86.27c-1.03-3.4,6.83-1.63,8.72-1.7Z" data-index="24" style="opacity: 1;"></path>
    <path d="M2254.53,1670.62l32.05,77.07c1.76-.11,1.98-1.9,2.58-3.11,11.36-22.76,19.68-48.1,29.37-72.12,1.8-3.04,5.67-1.91,8.8-2-10.7,28.85-21.32,57.99-33.23,86.36-.45,1.08-2.19,1.16-2.8,2.6-5.59,13.19-9.84,27.05-15.57,40.2l-9.55.64,16.51-41.67-36.89-86.27c-1.03-3.4,6.83-1.63,8.72-1.7Z" data-index="25"></path>
    <path d="M1536.02,1759.08h-7.65v-51.28c0-2.29-2.4-14.52-3.46-16.78-.44-.94-8.09-8.93-9.26-9.84-10.61-8.23-27.44-7.53-38.17.11-7.21,5.14-14.1,17.72-14.1,26.51v51.28h-7.65v-88.64h7.65v20.26c2.56-.87,2.43-5.04,4.22-7.21.67-.82,8.66-7.7,9.87-8.54,16.38-11.38,46.39-6.33,54.43,12.87,1.37,3.28,4.11,13.11,4.11,16.18v55.08Z" data-index="26" style="opacity: 1;"></path>
    <path d="M1826.55,1759.08h-7.65v-51.28c0-2.43-2.01-12.03-2.91-14.84-6.89-21.58-41.31-23.19-53.71-5.97-3.18,4.42-7.09,15.62-7.09,20.81v51.28h-7.65v-88.64h7.65v20.26l5.71-8.89c14.94-19.06,51.72-17.41,61.55,6.01,1.37,3.27,4.11,13.11,4.11,16.18v55.08Z" data-index="27"></path>
    <path d="M2000.92,1670.66l33.98,78.31,33.33-78.32,8.07-.2-37.12,88.46c-2.71.28-7.6,1.04-9.39-1.08-2.56-3.04-8.05-21.02-10.47-26.27-.77-1.67-2.52-1.53-3.26-3.18-8.44-18.73-15.75-38.75-22.58-57.92l7.44.21Z" data-index="28" style="opacity: 1;"></path>
    <path d="M2737.65,1688.17l7.77-10.64c7.78-5.84,16.74-9.31,26.64-8.36l.05,6.89c-11.24,2.24-24.88,3.88-30.47,15.44-1.26,2.6-3.98,11.4-3.98,13.77v53.82h-8.92v-88.64h8.92v17.73Z" data-index="29"></path>
    <path d="M2205.01,1688.17l7.77-10.64c8.18-6.23,17.52-9.39,27.91-8.36l.02,6.89c-11.57,1.91-26,3.59-31.73,15.44-1.26,2.6-3.98,11.4-3.98,13.77v53.82h-7.65v-88.64h7.65v17.73Z" data-index="30" style="opacity: 1;"></path>
    <rect x="2389.78" y="1638.79" width="7.65" height="120.3"></rect>
    <rect x="1422.61" y="1670.44" width="7.65" height="88.64"></rect>
    <rect x="1711.87" y="1670.44" width="7.65" height="88.64"></rect>
    
    <path class="st0" d="M1564.05,1712.23c-1.89-32.59,40.29-48.45,62.47-25.99,7.47,7.56,10.15,15.27,10.16,25.99h-72.63Z" data-index="32" style="opacity: 1; visibility: hidden;"></path>
    
    <path class="st0" d="M2700.7,1712.23h-71.36c-.55-48.2,72.8-48.95,71.36,0Z" data-index="34" style="opacity: 1; visibility: hidden;"></path>
    
  </g>
</svg>